<svg xmlns="http://www.w3.org/2000/svg" width="40.413" height="52.923" viewBox="0 0 40.413 52.923"><defs><style>.a{fill:none;stroke:#e60935;stroke-miterlimit:10;stroke-width:1.8px;}</style></defs><g transform="translate(0.9 0.918)"><path class="a" d="M29.566.309,28.287,0,25.462,5.869a1.067,1.067,0,0,1-.838.574A.9.9,0,0,1,23.741,6l-2.251-3.31a.709.709,0,0,0-1.1-.088l-.574.574a.731.731,0,0,1-.53.221.814.814,0,0,1-.53-.221L18.181,2.6a.709.709,0,0,0-1.1.088L14.827,6a.987.987,0,0,1-1.721-.132L10.282,0,9.046.309A11.941,11.941,0,0,0,0,11.871v7.193a2.6,2.6,0,0,0,2.6,2.559h33.45a2.561,2.561,0,0,0,2.559-2.559V11.871A11.941,11.941,0,0,0,29.566.309ZM19.328,19.549a1.1,1.1,0,1,1,1.1-1.1A1.152,1.152,0,0,1,19.328,19.549Zm0-5.251a1.1,1.1,0,1,1,1.1-1.1A1.152,1.152,0,0,1,19.328,14.3Zm0-5.251a1.1,1.1,0,1,1,1.1-1.1A1.186,1.186,0,0,1,19.328,9.046Z" transform="translate(0 29.481)"/><path class="a" d="M1.57,13.551c-.971.441-1.721,1.5-1.545,3.883.221,2.515,1.5,3.663,2.868,3.972,1.942,4.81,5.825,8.738,10.414,8.738s8.473-3.928,10.414-8.693c1.456-.221,2.824-1.368,3.045-4.016.177-1.986-.309-3.089-1.059-3.619,1.721-8.605-4.281-10.37-4.281-10.37s-5.56-6.663-15.4-1.456A12.892,12.892,0,0,0,.864,7.77.991.991,0,0,0,.953,8.917a1.138,1.138,0,0,0,1.1.4A5.892,5.892,0,0,0,1.57,13.551Zm2.251-.088c7.458-.044,11.959-3.133,14.474-5.869a18.653,18.653,0,0,1,4.589,8.34C22.4,21.626,18.339,27.893,13.4,27.893c-5.3,0-9.576-7.193-9.576-13.15A6.2,6.2,0,0,1,3.821,13.462Z" transform="translate(5.888 0)"/></g></svg>