<svg xmlns="http://www.w3.org/2000/svg" viewBox="768 226 151.4 40.2">
  <g transform="translate(1938 -75.9)">
    <g id="Group_1" data-name="Group 1" transform="translate(584 567)">
      <path fill="#fff" d="M-1603.7-226h-115.1a24.522,24.522,0,0,1,6.7-5.3,24.066,24.066,0,0,1,10.5-2.7h.5l.3-.4a17.344,17.344,0,0,1,7.5-6.2l.6-.3v-.7a22.654,22.654,0,0,1,6.6-15.9,22.478,22.478,0,0,1,15.9-6.6,21.379,21.379,0,0,1,10.2,2.5,23.521,23.521,0,0,1,7.8,6.6l.4.5.6-.1a18.1,18.1,0,0,1,4-.4,21.242,21.242,0,0,1,8.3,1.7,20.848,20.848,0,0,1,6.7,4.7l.4.4.6-.2a20.971,20.971,0,0,1,5.6-.7,22.185,22.185,0,0,1,15.6,6.4,21.767,21.767,0,0,1,6.4,15.6A4.486,4.486,0,0,0-1603.7-226Z"/>
      <path fill="rgba(119,119,119, .36)" d="M-1604.7-227h0a20.562,20.562,0,0,0-6.2-14.8,21.151,21.151,0,0,0-14.8-6.2,18.82,18.82,0,0,0-5.3.7l-1.1.3-.8-.9a20.173,20.173,0,0,0-6.3-4.5,19.248,19.248,0,0,0-7.9-1.6,15.815,15.815,0,0,0-3.8.4l-1.2.2-.8-1a22.422,22.422,0,0,0-7.4-6.3,20.514,20.514,0,0,0-9.8-2.3,21.334,21.334,0,0,0-15.2,6.3,20.937,20.937,0,0,0-6.3,15.1v1.3l-1.2.5a15.646,15.646,0,0,0-7.1,5.9l-.6.9h-1a22.293,22.293,0,0,0-10.1,2.6,26.176,26.176,0,0,0-4.8,3.4h111.7m1.9,2H-1721a24.884,24.884,0,0,1,8.3-7.2,23.344,23.344,0,0,1,11-2.8,18.44,18.44,0,0,1,8-6.6,23.551,23.551,0,0,1,6.9-16.6,23.377,23.377,0,0,1,16.6-6.9,23.165,23.165,0,0,1,10.7,2.6,23.229,23.229,0,0,1,8.1,6.8,19.923,19.923,0,0,1,4.2-.4,21.87,21.87,0,0,1,8.7,1.8,22.708,22.708,0,0,1,7,4.9,23.315,23.315,0,0,1,5.9-.8,23.259,23.259,0,0,1,16.3,6.7,22.91,22.91,0,0,1,6.7,16.3,19.914,19.914,0,0,0-.2,2.2Z"/>
    </g>
    <!-- <path id="Path_3" data-name="Path 3" class="cls-4" d="M-1132.1,341.1h-21.6"/> -->
    <path fill="none" stroke="rgba(119,119,119, .36)" stroke-linecap="round" stroke-width="2px" d="M-1162.1,341.1h-6.9"/>
  </g>
</svg>
