<svg xmlns="http://www.w3.org/2000/svg" width="39.325" height="51.101" viewBox="0 0 39.325 51.101"><defs><style>.a{fill:#e60935;}</style></defs><path class="a" d="M47.2,38.535H41.677a1.081,1.081,0,0,0,0,2.161H47.2a1.076,1.076,0,0,0,1.081-1.081A1.116,1.116,0,0,0,47.2,38.535Zm5.884,1.5A16.007,16.007,0,0,0,51.4,34.092a18.833,18.833,0,0,0-9.486-8.886,11.906,11.906,0,0,0,4.143-8.225,11.127,11.127,0,0,0-3-8.045A11.214,11.214,0,0,0,23.665,16.2a11.6,11.6,0,0,0,4.023,8.826c-1.741,1.021-10.206,6.244-10.867,13.448L15.2,56.486H54.525ZM40.176,27.188l.6.54,1.141,1.321-2.942,3.122L36.453,29.71ZM25.526,16.261a9.172,9.172,0,0,1,3-6.544A9.321,9.321,0,0,1,35.253,7.2a9.172,9.172,0,0,1,6.544,3,9.321,9.321,0,0,1,2.522,6.724,10.561,10.561,0,0,1-4.563,7.745.856.856,0,0,0-.36.9l-4.383,2.942-4.2-2.822a.926.926,0,0,0-.42-.961C27.868,23.165,25.346,19.923,25.526,16.261Zm5.4,15.91-2.942-3.182,1.141-1.321.6-.54,3.722,2.522Zm-2.281-6.424h0l-.12-.06C28.588,25.687,28.588,25.687,28.648,25.747ZM17.181,54.685,18.622,38.6c.42-4.623,4.923-8.525,7.865-10.567l-.36.42a.912.912,0,0,0,0,1.2l4.143,4.443a.964.964,0,0,0,.66.3h0a1.259,1.259,0,0,0,.66-.24l.12-.12,1.681,1.741h.12a.741.741,0,0,0-.24.48L31.71,48.2a.772.772,0,0,0,.24.72l2.462,2.522a.964.964,0,0,0,.66.3h0a.964.964,0,0,0,.66-.3l2.341-2.522a1.048,1.048,0,0,0,.24-.72L36.693,36.254a.741.741,0,0,0-.24-.48h.12l1.681-1.741-1.321-1.261-1.141,1.2H34.172l-1.141-1.2,1.981-1.981,3.422,3.362a.9.9,0,0,0,.66.24h0a.964.964,0,0,0,.66-.3L43.9,29.65a.913.913,0,0,0,0-1.2l-.3-.3a15.956,15.956,0,0,1,7.8,12.068l1.321,14.529H17.181ZM34.952,37.214l1.5,10.747-1.381,1.5-1.5-1.5Z" transform="translate(-15.2 -5.386)"/></svg>