<svg xmlns="http://www.w3.org/2000/svg" viewBox="991 193.001 169.95 46.999">
  <defs>
    <style>
      .cls-1 {
      }

      .cls-2 {
        fill: #fff;
      }

      .cls-3 {
        fill: none;
        stroke: rgba(119,119,119, .36);
        stroke-linecap: round;
        stroke-width: 2px;
      }

      .cls-4, .cls-5 {
        stroke: none;
      }

      .cls-5 {
        fill: rgba(119,119,119, .36);
      }
    </style>
  </defs>
  <g id="cloud-to-left" class="cls-1" transform="translate(181 -24)">
    <g id="Subtraction_1" data-name="Subtraction 1" class="cls-2" transform="translate(980 193.001)">
      <path class="cls-4" d="M -33.03198623657227 69.99920654296875 L -168.9530639648438 69.99920654296875 C -168.5837860107422 66.08879852294922 -166.0708312988281 62.74378967285156 -162.4677124023438 61.49702072143555 L -161.9081573486328 61.30340194702148 L -161.8088836669922 60.71967697143555 C -160.9510345458984 55.67607498168945 -157.3071746826172 51.61856460571289 -152.5256652832031 50.38267517089844 L -151.9995727539063 50.2466926574707 L -151.8274230957031 49.73129272460938 C -150.4009857177734 45.46060180664063 -147.7857666015625 41.79803848266602 -144.2644958496094 39.13954925537109 C -140.6776733398438 36.43156814575195 -136.4367828369141 35.00020217895508 -132.0002899169922 35.00020217895508 C -131.5859375 35.00020217895508 -131.1646728515625 35.01291275024414 -130.7482299804688 35.03800201416016 L -130.0444030761719 35.08036804199219 L -129.7680969238281 34.43169403076172 C -127.3276443481445 28.70232963562012 -121.7273101806641 25.00029373168945 -115.500602722168 25.00029373168945 C -109.247802734375 25.00029373168945 -103.6385116577148 28.72287559509277 -101.2102966308594 34.48400115966797 L -100.9214630126953 35.16929244995117 L -100.1820449829102 35.08989334106445 C -99.62783813476563 35.0303840637207 -99.06208038330078 35.00020217895508 -98.50051116943359 35.00020217895508 C -95.50049591064453 35.00020217895508 -92.59031677246094 35.85805892944336 -90.08462524414063 37.48102188110352 L -89.35494995117188 37.95363998413086 L -88.78543853759766 37.29678344726563 C -87.62326049804688 35.95638275146484 -86.23600769042969 34.89992904663086 -84.66217041015625 34.15678405761719 C -83.03713226318359 33.38947677612305 -81.30052947998047 33.00040435791016 -79.50060272216797 33.00040435791016 C -76.92393493652344 33.00040435791016 -74.45018768310547 33.80882263183594 -72.3468017578125 35.33827590942383 C -70.28284454345703 36.83909225463867 -68.71817016601563 38.9195671081543 -67.82196807861328 41.35478591918945 L -67.58833312988281 41.98960113525391 L -66.91217041015625 42.00898361206055 C -62.82651519775391 42.12614822387695 -58.91255187988281 43.4727668762207 -55.59338760375977 45.90324020385742 C -52.33855056762695 48.28660202026367 -49.85120391845703 51.55549240112305 -48.40024185180664 55.35652923583984 L -48.15522384643555 55.99836730957031 L -47.46820449829102 55.99989318847656 C -43.60784149169922 56.00843811035156 -39.97827911376953 57.56840133666992 -37.24811553955078 60.39244079589844 C -34.73832702636719 62.98852157592773 -33.26166915893555 66.36862182617188 -33.03198623657227 69.99920654296875 Z"/>
      <path class="cls-5" d="M -34.13636779785156 68.99920654296875 C -34.54600143432617 66.01256561279297 -35.87058258056641 63.25605773925781 -37.96707916259766 61.08749008178711 C -40.50769805908203 58.45948791503906 -43.88272094726563 57.00780868530273 -47.47042083740234 56.9998893737793 L -48.84447860717773 56.99684906005859 L -49.33449935913086 55.71315002441406 C -50.71656036376953 52.09256744384766 -53.08515930175781 48.97934722900391 -56.18420028686523 46.71004867553711 C -59.33911895751953 44.39984893798828 -63.05870056152344 43.11988830566406 -66.94081878662109 43.00858688354492 L -68.29318237304688 42.96980667114258 L -68.76043701171875 41.70014953613281 C -69.58802032470703 39.45132827758789 -71.03151702880859 37.53110885620117 -72.93488311767578 36.14708709716797 C -74.86625671386719 34.74271011352539 -77.13664245605469 34.00038909912109 -79.50060272216797 34.00038909912109 C -81.15171813964844 34.00038909912109 -82.74465942382813 34.35724639892578 -84.23517608642578 35.0610466003418 C -85.68260192871094 35.7445068359375 -86.95932006835938 36.71710968017578 -88.02989959716797 37.95186996459961 L -89.16892242431641 39.26556777954102 L -90.62828063964844 38.32032775878906 C -92.97165679931641 36.80248641967773 -95.69384002685547 36.00020980834961 -98.50051879882813 36.00020980834961 C -99.02649688720703 36.00020980834961 -99.55634307861328 36.02846908569336 -100.0753173828125 36.08418655395508 L -101.5541381835938 36.24294662475586 L -102.1317977905273 34.87238693237305 C -104.4033966064453 29.48280906677246 -109.6509780883789 26.00030899047852 -115.500617980957 26.00030899047852 C -121.325798034668 26.00030899047852 -126.5649795532227 29.46364784240723 -128.8480834960938 34.82358932495117 L -129.4006958007813 36.12096786499023 L -130.8083343505859 36.03619003295898 C -131.2047424316406 36.01231002807617 -131.6057739257813 36.00020980834961 -132.0003051757813 36.00020980834961 C -136.2175598144531 36.00020980834961 -140.2501068115234 37.36174774169922 -143.6619567871094 39.93764877319336 C -147.0212249755859 42.47380828857422 -149.5167999267578 45.96994781494141 -150.8789215087891 50.04808807373047 L -151.2232055664063 51.07888793945313 L -152.2754058837891 51.35084915161133 C -156.676025390625 52.48830795288086 -160.0311584472656 56.23160934448242 -160.8230133056641 60.88734817504883 L -161.0215759277344 62.05482864379883 L -162.1407012939453 62.44207000732422 C -165.03125 63.44223785400391 -167.1395874023438 65.95704650878906 -167.7896881103516 68.99920654296875 L -34.13636779785156 68.99920654296875 M -32.00041961669922 70.99920654296875 L -170.0001068115234 70.99920654296875 C -169.999755859375 66.24102783203125 -167.1037139892578 62.04300689697266 -162.7946929931641 60.55200958251953 C -161.8709564208984 55.12082672119141 -157.9380950927734 50.74878692626953 -152.7758941650391 49.41448974609375 C -151.2851867675781 44.95132827758789 -148.5500946044922 41.12210845947266 -144.8670349121094 38.34146881103516 C -141.1052551269531 35.50138854980469 -136.6560211181641 34.00020980834961 -132.0003051757813 34.00020980834961 C -131.5662231445313 34.00020980834961 -131.1247406005859 34.01350784301758 -130.6880950927734 34.0398063659668 C -128.0903930664063 27.94128799438477 -122.1285781860352 24.00030899047852 -115.500617980957 24.00030899047852 C -108.8446197509766 24.00030899047852 -102.8736190795898 27.96292877197266 -100.288818359375 34.09560775756836 C -99.69718170166016 34.03208923339844 -99.09517669677734 34.00020980834961 -98.50051879882813 34.00020980834961 C -95.30712127685547 34.00020980834961 -92.20897674560547 34.91360855102539 -89.54100036621094 36.64168930053711 C -88.28704071044922 35.19542694091797 -86.78880310058594 34.05508804321289 -85.08915710449219 33.25252914428711 C -83.32958221435547 32.42168807983398 -81.44931793212891 32.00038909912109 -79.50060272216797 32.00038909912109 C -76.71121978759766 32.00038909912109 -74.03411865234375 32.87494659423828 -71.75868225097656 34.52950668334961 C -69.53411865234375 36.14710998535156 -67.84828186035156 38.38780975341797 -66.88349914550781 41.00940704345703 C -62.5943603515625 41.13238906860352 -58.48567962646484 42.5459098815918 -55.00259780883789 45.09640884399414 C -51.59193801879883 47.59388732910156 -48.98582077026367 51.01844787597656 -47.46599960327148 54.9998893737793 C -43.33308029174805 55.00902938842773 -39.4486198425293 56.67752838134766 -36.52915954589844 59.6973876953125 C -33.60934066772461 62.71758651733398 -32.00099945068359 66.73094940185547 -32.00041961669922 70.99820709228516 L -32.00041961669922 70.99920654296875 Z"/>
    </g>
    <path id="Path_6" data-name="Path 6" class="cls-3" d="M-1132.1,341.1h-21.6" transform="translate(2097 -78.1)"/>
    <path id="Path_7" data-name="Path 7" class="cls-3" d="M-1145.05,341.1h-8.65" transform="translate(2124 -78.1)"/>
  </g>
</svg>
